<?xml version="1.0" encoding="UTF-8"?><svg id="Layer_2" xmlns="http://www.w3.org/2000/svg" viewBox="0 0 6341.26 3832.12"><defs><style>.cls-1{fill:#fff;stroke-width:0px;}</style></defs><g id="Layer_1-2"><path class="cls-1" d="m3314.77,1372.42c-40.31,189.3-16.86,495.06,22.72,838.08,4.37,37.88,42.71,241.67,38.47,260.83-9.42,42.53-52.71,65.17-93.97,60.66-22.75-2.49-50.36-29.09-63.52-43.58-21.61-23.81-56.17-71.91-74.5-97.11-45.01-61.87-59.71-83.35-138.53-206.63-87.23-136.42-181.14-272.64-275.31-402.31-47.32-65.15-96.25-132.52-142.56-199.27l-434.11-625.65c-5.97-8.42-18.88-28.55-23.68-34.21-11.21-13.2-36.52-60.77-31.34-9.63,5.6,55.32,4.66,65.15,11.56,118.18,3.21,24.71,10.11,131.51,11.61,151.91,6.55,89.14,9.54,161.91,9.42,228.99-.18,97.79-15.02,195.6-34.73,291.19-17.41,84.44-39.53,168.87-68.43,250.14-3.86,10.85-13.99,38.77-10.46,42.55,2.69,2.88,23.37-12.89,32.99-18.66,102.32-61.39,177.25-112.25,202.57-129.47,10.19-6.93,98.98-67.35,110.26-75.33,55.27-39.12,69.93-41.32,93.14-39.04,9.04.89,20.62,6.6,28.53,18.85,32.4,50.2-85.03,108.02-182.56,173.29-29.26,19.57-68.42,42.3-93.04,60.53-19.08,14.13-54.96,34.12-98.64,63.89-38.53,26.26-63.51,45.69-133.39,87.43-33.02,19.73-54.53,35.85-80.16,33.05-11.93-1.3-23.14-13.02-27.6-21.33-5.8-10.8-1.87-28,2.7-51.46,8.29-42.55,25.63-82.71,38.22-124.08,9.19-30.21,17.91-60.56,27.06-90.77,13.1-43.24,18.9-63.48,31.4-122.61,23.14-109.53,35.06-235.35,35.43-374,.62-235.77-40.06-489.33-128.02-797.96-1.44-5.08-2.96-10.09-4.44-15.05-10.58-35.19-18.94-63,.06-89.99,21.18-30.1,42.8-43.5,66.07-40.95,22.62,2.48,60.13,22.02,110.32,101.1,216.43,341.04,450.6,677.9,677.05,1003.66,109.03,156.85,221.78,319.04,331,479.48,4.97,7.37,9.76,15.42,15.3,23.32,42.63,60.8,83.58,122.13,135.6,175.62-20.3-194.04-54.45-387.49-51.44-582.57,3.23-209.96,64.96-452.62,236.89-572.92,94.5-66.13,136.58,19.94,67.98,69.31-86.05,61.93-128.62,151.32-145.91,232.51Z"/><path class="cls-1" d="m3026.49,1160.14c40.31-189.3,16.86-495.06-22.72-838.08-4.37-37.88-42.71-241.67-38.47-260.83,9.42-42.53,52.71-65.17,93.97-60.66,22.75,2.49,50.36,29.09,63.52,43.58,21.61,23.81,56.17,71.91,74.5,97.11,45.01,61.87,59.71,83.35,138.53,206.63,87.23,136.42,181.14,272.64,275.31,402.31,47.32,65.15,96.25,132.52,142.56,199.27l434.11,625.65c5.97,8.42,18.88,28.55,23.68,34.21,11.21,13.2,36.52,60.77,31.34,9.63-5.6-55.32-4.66-65.15-11.56-118.18-3.21-24.71-10.11-131.51-11.61-151.91-6.55-89.14-9.54-161.91-9.42-228.99.18-97.79,15.02-195.6,34.73-291.19,17.41-84.44,39.53-168.87,68.43-250.14,3.86-10.85,13.99-38.77,10.46-42.55-2.69-2.88-23.37,12.89-32.99,18.66-102.32,61.39-177.25,112.25-202.57,129.47-10.19,6.93-98.98,67.35-110.26,75.33-55.27,39.12-69.93,41.32-93.14,39.04-9.04-.89-20.62-6.6-28.53-18.85-32.4-50.2,85.03-108.02,182.56-173.29,29.26-19.57,68.42-42.3,93.04-60.53,19.08-14.13,54.96-34.12,98.64-63.89,38.53-26.26,63.51-45.69,133.39-87.43,33.02-19.73,54.53-35.85,80.16-33.05,11.93,1.3,23.14,13.02,27.6,21.33,5.8,10.8,1.87,28-2.7,51.46-8.29,42.55-25.63,82.71-38.22,124.08-9.19,30.21-17.91,60.56-27.06,90.77-13.1,43.24-18.9,63.48-31.4,122.61-23.14,109.53-35.06,235.35-35.43,374-.62,235.77,40.06,489.33,128.02,797.96,1.44,5.08,2.96,10.09,4.44,15.05,10.58,35.19,18.94,63-.06,89.99-21.18,30.1-42.8,43.5-66.07,40.95-22.62-2.48-60.13-22.02-110.32-101.1-216.43-341.04-450.6-677.9-677.05-1003.66-109.03-156.85-221.78-319.04-331-479.48-4.97-7.37-9.76-15.42-15.3-23.32-42.63-60.8-83.58-122.13-135.6-175.62,20.3,194.04,54.45,387.49,51.44,582.57-3.23,209.96-64.96,452.62-236.89,572.92-94.5,66.13-136.58-19.94-67.98-69.31,86.05-61.93,128.62-151.32,145.91-232.51Z"/><path class="cls-1" d="m335.23,2920.76c-181.92,0-335.23,122.97-335.23,352.07v537.38h154.99v-528.95c0-149.93,74.11-224.05,180.24-224.05s178.58,74.12,178.58,224.05v528.95h154.98v-537.38c0-229.1-148.24-352.07-333.56-352.07Z"/><path class="cls-1" d="m1279.58,2920.76c-202.16,0-352.09,124.66-352.09,380.71v149.93c0,254.37,149.93,380.71,352.09,380.71s352.07-126.34,352.07-380.71v-149.93c0-254.37-149.93-380.71-352.07-380.71Zm197.09,522.22c0,181.93-79.18,252.68-197.09,252.68s-197.09-70.75-197.09-252.68v-133.08c0-183.62,77.49-252.69,197.09-252.69s197.09,69.07,197.09,252.69v133.08Z"/><polygon class="cls-1" points="2496.82 2942.66 2330.04 2942.66 2144.74 3237.46 1964.49 2942.66 1794.36 2942.66 2055.46 3360.44 1770.77 3810.22 1939.23 3810.22 2146.43 3481.73 2348.57 3810.22 2520.41 3810.22 2235.71 3357.07 2496.82 2942.66"/><path class="cls-1" d="m3366.73,2920.76c-181.93,0-335.23,122.97-335.23,352.07v537.38h154.99v-528.95c0-149.93,74.11-224.05,180.24-224.05s178.57,74.12,178.57,224.05v528.95h154.98v-537.38c0-229.1-148.24-352.07-333.56-352.07Z"/><path class="cls-1" d="m4311.07,2920.76c-202.16,0-352.09,124.66-352.09,380.71v149.93c0,254.37,149.93,380.71,352.09,380.71s352.07-126.34,352.07-380.71v-149.93c0-254.37-149.93-380.71-352.07-380.71Zm197.09,522.22c0,181.93-79.18,252.68-197.09,252.68s-197.09-70.75-197.09-252.68v-133.08c0-183.62,77.49-252.69,197.09-252.69s197.09,69.07,197.09,252.69v133.08Z"/><path class="cls-1" d="m5241.94,3456.46c-16.84,52.22-35.37,126.34-50.53,195.41-16.84-69.07-33.7-143.19-50.54-195.41l-165.08-513.79h-160.03l288.05,867.55h175.2l288.06-867.55h-160.03l-165.09,513.79Z"/><path class="cls-1" d="m6021.2,2920.76c-89.28,0-178.56,20.21-262.79,47.17l33.69,128.03c72.44-21.9,153.3-38.74,229.1-38.74,109.5,0,166.77,65.7,166.77,183.62v47.17h-170.14c-186.98,0-315.01,92.65-315.01,262.8,0,158.35,138.14,281.32,321.75,281.32,173.51,0,316.7-122.97,316.7-281.32v-309.96c0-198.78-126.33-320.07-320.06-320.07Zm166.77,630.03c0,77.49-65.7,144.87-163.41,144.87-102.76,0-163.39-70.75-163.39-146.56s45.48-139.82,156.66-139.82h170.14v141.5Z"/></g></svg>